<svg width="1511" height="410" viewBox="0 0 1511 410" fill="none" xmlns="http://www.w3.org/2000/svg">
<g filter="url(#filter0_b_579_991)">
<rect width="1511" height="409" transform="translate(0 0.262695)" fill="#111023" fill-opacity="0.8"/>
<path d="M123 185.763C123 158.425 145.162 136.263 172.5 136.263H398V223.763C398 251.101 375.838 273.263 348.5 273.263H123V185.763Z" stroke="white"/>
<path d="M203.835 209.073C207.355 206.139 210.16 203.701 212.25 201.758C214.34 199.778 216.082 197.724 217.475 195.598C218.868 193.471 219.565 191.381 219.565 189.328C219.565 187.458 219.125 185.991 218.245 184.928C217.365 183.864 216.008 183.333 214.175 183.333C212.342 183.333 210.93 183.956 209.94 185.203C208.95 186.413 208.437 188.081 208.4 190.208H200.92C201.067 185.808 202.368 182.471 204.825 180.198C207.318 177.924 210.472 176.788 214.285 176.788C218.465 176.788 221.673 177.906 223.91 180.143C226.147 182.343 227.265 185.258 227.265 188.888C227.265 191.748 226.495 194.479 224.955 197.083C223.415 199.686 221.655 201.959 219.675 203.903C217.695 205.809 215.11 208.119 211.92 210.833H228.145V217.213H200.975V211.493L203.835 209.073ZM233.107 188.228C233.29 184.561 234.574 181.738 236.957 179.758C239.377 177.741 242.549 176.733 246.472 176.733C249.149 176.733 251.44 177.209 253.347 178.163C255.254 179.079 256.684 180.344 257.637 181.958C258.627 183.534 259.122 185.331 259.122 187.348C259.122 189.658 258.517 191.619 257.307 193.233C256.134 194.809 254.722 195.873 253.072 196.423V196.643C255.199 197.303 256.849 198.476 258.022 200.163C259.232 201.849 259.837 204.013 259.837 206.653C259.837 208.853 259.324 210.814 258.297 212.538C257.307 214.261 255.822 215.618 253.842 216.608C251.899 217.561 249.552 218.038 246.802 218.038C242.659 218.038 239.285 216.993 236.682 214.903C234.079 212.813 232.704 209.733 232.557 205.663H240.037C240.11 207.459 240.715 208.908 241.852 210.008C243.025 211.071 244.62 211.603 246.637 211.603C248.507 211.603 249.937 211.089 250.927 210.063C251.954 208.999 252.467 207.643 252.467 205.993C252.467 203.793 251.77 202.216 250.377 201.263C248.984 200.309 246.82 199.833 243.887 199.833H242.292V193.508H243.887C249.094 193.508 251.697 191.766 251.697 188.283C251.697 186.706 251.22 185.478 250.267 184.598C249.35 183.718 248.012 183.278 246.252 183.278C244.529 183.278 243.19 183.754 242.237 184.708C241.32 185.624 240.789 186.798 240.642 188.228H233.107ZM265.592 209.953V203.903L283.577 178.163H292.542V203.243H297.382V209.953H292.542V217.763H284.842V209.953H265.592ZM285.337 186.413L274.062 203.243H285.337V186.413ZM318.905 189.028H312.668V195.43H308.312V189.028H302.075V185.002H308.312V178.6H312.668V185.002H318.905V189.028Z" fill="#07E2AB"/>
<path d="M229.102 248.979C228.25 248.979 227.476 248.817 226.78 248.493C226.084 248.169 225.496 247.737 225.016 247.197C224.536 246.645 224.194 246.039 223.99 245.379L225.286 244.893C225.598 245.805 226.084 246.501 226.744 246.981C227.404 247.449 228.19 247.683 229.102 247.683C229.678 247.683 230.182 247.593 230.614 247.413C231.058 247.221 231.4 246.957 231.64 246.621C231.88 246.285 232 245.895 232 245.451C232 244.791 231.82 244.281 231.46 243.921C231.1 243.561 230.584 243.285 229.912 243.093L227.5 242.373C226.552 242.097 225.82 241.635 225.304 240.987C224.8 240.339 224.548 239.601 224.548 238.773C224.548 238.065 224.722 237.441 225.07 236.901C225.418 236.349 225.892 235.917 226.492 235.605C227.104 235.293 227.794 235.137 228.562 235.137C229.366 235.137 230.086 235.287 230.722 235.587C231.37 235.875 231.916 236.259 232.36 236.739C232.804 237.219 233.122 237.753 233.314 238.341L232.054 238.845C231.766 238.053 231.316 237.453 230.704 237.045C230.104 236.637 229.396 236.433 228.58 236.433C228.064 236.433 227.608 236.523 227.212 236.703C226.828 236.883 226.528 237.141 226.312 237.477C226.096 237.813 225.988 238.209 225.988 238.665C225.988 239.217 226.162 239.715 226.51 240.159C226.858 240.591 227.392 240.915 228.112 241.131L230.236 241.761C231.292 242.073 232.09 242.523 232.63 243.111C233.17 243.699 233.44 244.437 233.44 245.325C233.44 246.045 233.254 246.681 232.882 247.233C232.522 247.773 232.012 248.199 231.352 248.511C230.704 248.823 229.954 248.979 229.102 248.979ZM240.415 248.979C239.515 248.979 238.699 248.763 237.967 248.331C237.247 247.887 236.677 247.281 236.257 246.513C235.837 245.745 235.627 244.875 235.627 243.903C235.627 242.931 235.831 242.073 236.239 241.329C236.647 240.573 237.199 239.979 237.895 239.547C238.603 239.115 239.395 238.899 240.271 238.899C240.967 238.899 241.585 239.031 242.125 239.295C242.677 239.547 243.145 239.895 243.529 240.339C243.913 240.771 244.207 241.263 244.411 241.815C244.615 242.355 244.717 242.913 244.717 243.489C244.717 243.609 244.711 243.747 244.699 243.903C244.687 244.047 244.669 244.197 244.645 244.353H236.491V243.093H243.871L243.223 243.633C243.331 242.973 243.253 242.385 242.989 241.869C242.737 241.341 242.371 240.927 241.891 240.627C241.411 240.315 240.871 240.159 240.271 240.159C239.671 240.159 239.113 240.315 238.597 240.627C238.093 240.939 237.697 241.377 237.409 241.941C237.121 242.493 237.007 243.153 237.067 243.921C237.007 244.689 237.127 245.361 237.427 245.937C237.739 246.501 238.159 246.939 238.687 247.251C239.227 247.563 239.803 247.719 240.415 247.719C241.123 247.719 241.717 247.551 242.197 247.215C242.677 246.879 243.067 246.459 243.367 245.955L244.519 246.567C244.327 246.999 244.033 247.401 243.637 247.773C243.241 248.133 242.767 248.427 242.215 248.655C241.675 248.871 241.075 248.979 240.415 248.979ZM247.097 248.763V239.115H248.447V240.699L248.267 240.465C248.495 240.009 248.837 239.649 249.293 239.385C249.761 239.121 250.325 238.989 250.985 238.989H251.597V240.339H250.751C250.055 240.339 249.497 240.555 249.077 240.987C248.657 241.419 248.447 242.031 248.447 242.823V248.763H247.097ZM255.753 248.763L251.991 239.115H253.503L256.671 247.575H256.185L259.371 239.115H260.901L257.103 248.763H255.753ZM262.478 248.763V239.115H263.828V248.763H262.478ZM262.478 237.333V235.353H263.828V237.333H262.478ZM271.001 248.979C270.053 248.979 269.219 248.757 268.499 248.313C267.779 247.869 267.215 247.269 266.807 246.513C266.399 245.745 266.195 244.881 266.195 243.921C266.195 242.961 266.399 242.103 266.807 241.347C267.215 240.591 267.779 239.997 268.499 239.565C269.219 239.121 270.053 238.899 271.001 238.899C271.601 238.899 272.165 239.007 272.693 239.223C273.221 239.439 273.689 239.733 274.097 240.105C274.505 240.465 274.811 240.885 275.015 241.365L273.791 241.995C273.551 241.479 273.185 241.059 272.693 240.735C272.201 240.411 271.637 240.249 271.001 240.249C270.365 240.249 269.789 240.411 269.273 240.735C268.769 241.047 268.367 241.485 268.067 242.049C267.779 242.601 267.635 243.231 267.635 243.939C267.635 244.635 267.779 245.265 268.067 245.829C268.367 246.381 268.769 246.819 269.273 247.143C269.789 247.467 270.365 247.629 271.001 247.629C271.637 247.629 272.195 247.467 272.675 247.143C273.167 246.819 273.539 246.387 273.791 245.847L275.015 246.513C274.811 246.981 274.505 247.401 274.097 247.773C273.689 248.145 273.221 248.439 272.693 248.655C272.165 248.871 271.601 248.979 271.001 248.979ZM281.776 248.979C280.876 248.979 280.06 248.763 279.328 248.331C278.608 247.887 278.038 247.281 277.618 246.513C277.198 245.745 276.988 244.875 276.988 243.903C276.988 242.931 277.192 242.073 277.6 241.329C278.008 240.573 278.56 239.979 279.256 239.547C279.964 239.115 280.756 238.899 281.632 238.899C282.328 238.899 282.946 239.031 283.486 239.295C284.038 239.547 284.506 239.895 284.89 240.339C285.274 240.771 285.568 241.263 285.772 241.815C285.976 242.355 286.078 242.913 286.078 243.489C286.078 243.609 286.072 243.747 286.06 243.903C286.048 244.047 286.03 244.197 286.006 244.353H277.852V243.093H285.232L284.584 243.633C284.692 242.973 284.614 242.385 284.35 241.869C284.098 241.341 283.732 240.927 283.252 240.627C282.772 240.315 282.232 240.159 281.632 240.159C281.032 240.159 280.474 240.315 279.958 240.627C279.454 240.939 279.058 241.377 278.77 241.941C278.482 242.493 278.368 243.153 278.428 243.921C278.368 244.689 278.488 245.361 278.788 245.937C279.1 246.501 279.52 246.939 280.048 247.251C280.588 247.563 281.164 247.719 281.776 247.719C282.484 247.719 283.078 247.551 283.558 247.215C284.038 246.879 284.428 246.459 284.728 245.955L285.88 246.567C285.688 246.999 285.394 247.401 284.998 247.773C284.602 248.133 284.128 248.427 283.576 248.655C283.036 248.871 282.436 248.979 281.776 248.979ZM291.806 248.979C290.882 248.979 290.072 248.745 289.376 248.277C288.68 247.809 288.176 247.173 287.864 246.369L288.998 245.829C289.274 246.417 289.658 246.885 290.15 247.233C290.654 247.581 291.206 247.755 291.806 247.755C292.382 247.755 292.868 247.617 293.264 247.341C293.66 247.053 293.858 246.681 293.858 246.225C293.858 245.889 293.762 245.625 293.57 245.433C293.378 245.229 293.156 245.073 292.904 244.965C292.652 244.857 292.43 244.779 292.238 244.731L290.852 244.335C289.964 244.083 289.322 243.729 288.926 243.273C288.53 242.817 288.332 242.289 288.332 241.689C288.332 241.125 288.476 240.633 288.764 240.213C289.052 239.793 289.442 239.469 289.934 239.241C290.426 239.013 290.972 238.899 291.572 238.899C292.388 238.899 293.126 239.115 293.786 239.547C294.458 239.967 294.932 240.555 295.208 241.311L294.056 241.851C293.816 241.311 293.468 240.891 293.012 240.591C292.568 240.279 292.07 240.123 291.518 240.123C290.978 240.123 290.546 240.261 290.222 240.537C289.898 240.813 289.736 241.161 289.736 241.581C289.736 241.905 289.82 242.163 289.988 242.355C290.156 242.547 290.348 242.691 290.564 242.787C290.792 242.883 290.99 242.955 291.158 243.003L292.76 243.471C293.54 243.699 294.146 244.053 294.578 244.533C295.022 245.013 295.244 245.577 295.244 246.225C295.244 246.753 295.094 247.227 294.794 247.647C294.506 248.067 294.104 248.397 293.588 248.637C293.072 248.865 292.478 248.979 291.806 248.979Z" fill="white"/>
<path d="M453 185.763C453 158.425 475.162 136.263 502.5 136.263H728V223.763C728 251.101 705.838 273.263 678.5 273.263H453V185.763Z" stroke="white"/>
<path d="M566.935 183.498L552.305 217.763H544.495L559.235 184.378H540.425V177.778H566.935V183.498ZM570.612 184.763V177.668H583.867V217.763H575.947V184.763H570.612ZM593.894 209.073C597.414 206.139 600.219 203.701 602.309 201.758C604.399 199.778 606.14 197.724 607.534 195.598C608.927 193.471 609.624 191.381 609.624 189.328C609.624 187.458 609.184 185.991 608.304 184.928C607.424 183.864 606.067 183.333 604.234 183.333C602.4 183.333 600.989 183.956 599.999 185.203C599.009 186.413 598.495 188.081 598.459 190.208H590.979C591.125 185.808 592.427 182.471 594.884 180.198C597.377 177.924 600.53 176.788 604.344 176.788C608.524 176.788 611.732 177.906 613.969 180.143C616.205 182.343 617.324 185.258 617.324 188.888C617.324 191.748 616.554 194.479 615.014 197.083C613.474 199.686 611.714 201.959 609.734 203.903C607.754 205.809 605.169 208.119 601.979 210.833H618.204V217.213H591.034V211.493L593.894 209.073ZM639.677 189.028H633.44V195.43H629.084V189.028H622.847V185.002H629.084V178.6H633.44V185.002H639.677V189.028Z" fill="#07E2AB"/>
<path d="M559.102 248.979C558.25 248.979 557.476 248.817 556.78 248.493C556.084 248.169 555.496 247.737 555.016 247.197C554.536 246.645 554.194 246.039 553.99 245.379L555.286 244.893C555.598 245.805 556.084 246.501 556.744 246.981C557.404 247.449 558.19 247.683 559.102 247.683C559.678 247.683 560.182 247.593 560.614 247.413C561.058 247.221 561.4 246.957 561.64 246.621C561.88 246.285 562 245.895 562 245.451C562 244.791 561.82 244.281 561.46 243.921C561.1 243.561 560.584 243.285 559.912 243.093L557.5 242.373C556.552 242.097 555.82 241.635 555.304 240.987C554.8 240.339 554.548 239.601 554.548 238.773C554.548 238.065 554.722 237.441 555.07 236.901C555.418 236.349 555.892 235.917 556.492 235.605C557.104 235.293 557.794 235.137 558.562 235.137C559.366 235.137 560.086 235.287 560.722 235.587C561.37 235.875 561.916 236.259 562.36 236.739C562.804 237.219 563.122 237.753 563.314 238.341L562.054 238.845C561.766 238.053 561.316 237.453 560.704 237.045C560.104 236.637 559.396 236.433 558.58 236.433C558.064 236.433 557.608 236.523 557.212 236.703C556.828 236.883 556.528 237.141 556.312 237.477C556.096 237.813 555.988 238.209 555.988 238.665C555.988 239.217 556.162 239.715 556.51 240.159C556.858 240.591 557.392 240.915 558.112 241.131L560.236 241.761C561.292 242.073 562.09 242.523 562.63 243.111C563.17 243.699 563.44 244.437 563.44 245.325C563.44 246.045 563.254 246.681 562.882 247.233C562.522 247.773 562.012 248.199 561.352 248.511C560.704 248.823 559.954 248.979 559.102 248.979ZM570.415 248.979C569.515 248.979 568.699 248.763 567.967 248.331C567.247 247.887 566.677 247.281 566.257 246.513C565.837 245.745 565.627 244.875 565.627 243.903C565.627 242.931 565.831 242.073 566.239 241.329C566.647 240.573 567.199 239.979 567.895 239.547C568.603 239.115 569.395 238.899 570.271 238.899C570.967 238.899 571.585 239.031 572.125 239.295C572.677 239.547 573.145 239.895 573.529 240.339C573.913 240.771 574.207 241.263 574.411 241.815C574.615 242.355 574.717 242.913 574.717 243.489C574.717 243.609 574.711 243.747 574.699 243.903C574.687 244.047 574.669 244.197 574.645 244.353H566.491V243.093H573.871L573.223 243.633C573.331 242.973 573.253 242.385 572.989 241.869C572.737 241.341 572.371 240.927 571.891 240.627C571.411 240.315 570.871 240.159 570.271 240.159C569.671 240.159 569.113 240.315 568.597 240.627C568.093 240.939 567.697 241.377 567.409 241.941C567.121 242.493 567.007 243.153 567.067 243.921C567.007 244.689 567.127 245.361 567.427 245.937C567.739 246.501 568.159 246.939 568.687 247.251C569.227 247.563 569.803 247.719 570.415 247.719C571.123 247.719 571.717 247.551 572.197 247.215C572.677 246.879 573.067 246.459 573.367 245.955L574.519 246.567C574.327 246.999 574.033 247.401 573.637 247.773C573.241 248.133 572.767 248.427 572.215 248.655C571.675 248.871 571.075 248.979 570.415 248.979ZM577.097 248.763V239.115H578.447V240.699L578.267 240.465C578.495 240.009 578.837 239.649 579.293 239.385C579.761 239.121 580.325 238.989 580.985 238.989H581.597V240.339H580.751C580.055 240.339 579.497 240.555 579.077 240.987C578.657 241.419 578.447 242.031 578.447 242.823V248.763H577.097ZM585.753 248.763L581.991 239.115H583.503L586.671 247.575H586.185L589.371 239.115H590.901L587.103 248.763H585.753ZM592.478 248.763V239.115H593.828V248.763H592.478ZM592.478 237.333V235.353H593.828V237.333H592.478ZM601.001 248.979C600.053 248.979 599.219 248.757 598.499 248.313C597.779 247.869 597.215 247.269 596.807 246.513C596.399 245.745 596.195 244.881 596.195 243.921C596.195 242.961 596.399 242.103 596.807 241.347C597.215 240.591 597.779 239.997 598.499 239.565C599.219 239.121 600.053 238.899 601.001 238.899C601.601 238.899 602.165 239.007 602.693 239.223C603.221 239.439 603.689 239.733 604.097 240.105C604.505 240.465 604.811 240.885 605.015 241.365L603.791 241.995C603.551 241.479 603.185 241.059 602.693 240.735C602.201 240.411 601.637 240.249 601.001 240.249C600.365 240.249 599.789 240.411 599.273 240.735C598.769 241.047 598.367 241.485 598.067 242.049C597.779 242.601 597.635 243.231 597.635 243.939C597.635 244.635 597.779 245.265 598.067 245.829C598.367 246.381 598.769 246.819 599.273 247.143C599.789 247.467 600.365 247.629 601.001 247.629C601.637 247.629 602.195 247.467 602.675 247.143C603.167 246.819 603.539 246.387 603.791 245.847L605.015 246.513C604.811 246.981 604.505 247.401 604.097 247.773C603.689 248.145 603.221 248.439 602.693 248.655C602.165 248.871 601.601 248.979 601.001 248.979ZM611.776 248.979C610.876 248.979 610.06 248.763 609.328 248.331C608.608 247.887 608.038 247.281 607.618 246.513C607.198 245.745 606.988 244.875 606.988 243.903C606.988 242.931 607.192 242.073 607.6 241.329C608.008 240.573 608.56 239.979 609.256 239.547C609.964 239.115 610.756 238.899 611.632 238.899C612.328 238.899 612.946 239.031 613.486 239.295C614.038 239.547 614.506 239.895 614.89 240.339C615.274 240.771 615.568 241.263 615.772 241.815C615.976 242.355 616.078 242.913 616.078 243.489C616.078 243.609 616.072 243.747 616.06 243.903C616.048 244.047 616.03 244.197 616.006 244.353H607.852V243.093H615.232L614.584 243.633C614.692 242.973 614.614 242.385 614.35 241.869C614.098 241.341 613.732 240.927 613.252 240.627C612.772 240.315 612.232 240.159 611.632 240.159C611.032 240.159 610.474 240.315 609.958 240.627C609.454 240.939 609.058 241.377 608.77 241.941C608.482 242.493 608.368 243.153 608.428 243.921C608.368 244.689 608.488 245.361 608.788 245.937C609.1 246.501 609.52 246.939 610.048 247.251C610.588 247.563 611.164 247.719 611.776 247.719C612.484 247.719 613.078 247.551 613.558 247.215C614.038 246.879 614.428 246.459 614.728 245.955L615.88 246.567C615.688 246.999 615.394 247.401 614.998 247.773C614.602 248.133 614.128 248.427 613.576 248.655C613.036 248.871 612.436 248.979 611.776 248.979ZM621.806 248.979C620.882 248.979 620.072 248.745 619.376 248.277C618.68 247.809 618.176 247.173 617.864 246.369L618.998 245.829C619.274 246.417 619.658 246.885 620.15 247.233C620.654 247.581 621.206 247.755 621.806 247.755C622.382 247.755 622.868 247.617 623.264 247.341C623.66 247.053 623.858 246.681 623.858 246.225C623.858 245.889 623.762 245.625 623.57 245.433C623.378 245.229 623.156 245.073 622.904 244.965C622.652 244.857 622.43 244.779 622.238 244.731L620.852 244.335C619.964 244.083 619.322 243.729 618.926 243.273C618.53 242.817 618.332 242.289 618.332 241.689C618.332 241.125 618.476 240.633 618.764 240.213C619.052 239.793 619.442 239.469 619.934 239.241C620.426 239.013 620.972 238.899 621.572 238.899C622.388 238.899 623.126 239.115 623.786 239.547C624.458 239.967 624.932 240.555 625.208 241.311L624.056 241.851C623.816 241.311 623.468 240.891 623.012 240.591C622.568 240.279 622.07 240.123 621.518 240.123C620.978 240.123 620.546 240.261 620.222 240.537C619.898 240.813 619.736 241.161 619.736 241.581C619.736 241.905 619.82 242.163 619.988 242.355C620.156 242.547 620.348 242.691 620.564 242.787C620.792 242.883 620.99 242.955 621.158 243.003L622.76 243.471C623.54 243.699 624.146 244.053 624.578 244.533C625.022 245.013 625.244 245.577 625.244 246.225C625.244 246.753 625.094 247.227 624.794 247.647C624.506 248.067 624.104 248.397 623.588 248.637C623.072 248.865 622.478 248.979 621.806 248.979Z" fill="white"/>
<path d="M783 185.763C783 158.425 805.162 136.263 832.5 136.263H1058V223.763C1058 251.101 1035.84 273.263 1008.5 273.263H783V185.763Z" stroke="white"/>
<path d="M865.625 196.533C861.958 194.626 860.125 191.674 860.125 187.678C860.125 185.698 860.62 183.901 861.61 182.288C862.637 180.638 864.158 179.336 866.175 178.383C868.228 177.393 870.722 176.898 873.655 176.898C876.588 176.898 879.063 177.393 881.08 178.383C883.133 179.336 884.655 180.638 885.645 182.288C886.672 183.901 887.185 185.698 887.185 187.678C887.185 189.694 886.69 191.473 885.7 193.013C884.71 194.516 883.39 195.689 881.74 196.533C883.757 197.413 885.333 198.696 886.47 200.383C887.607 202.069 888.175 204.068 888.175 206.378C888.175 208.871 887.533 211.053 886.25 212.923C885.003 214.756 883.28 216.168 881.08 217.158C878.88 218.148 876.405 218.643 873.655 218.643C870.905 218.643 868.43 218.148 866.23 217.158C864.067 216.168 862.343 214.756 861.06 212.923C859.813 211.053 859.19 208.871 859.19 206.378C859.19 204.068 859.758 202.069 860.895 200.383C862.032 198.659 863.608 197.376 865.625 196.533ZM879.705 188.778C879.705 186.981 879.155 185.588 878.055 184.598C876.992 183.608 875.525 183.113 873.655 183.113C871.822 183.113 870.355 183.608 869.255 184.598C868.192 185.588 867.66 186.999 867.66 188.833C867.66 190.483 868.21 191.803 869.31 192.793C870.447 193.783 871.895 194.278 873.655 194.278C875.415 194.278 876.863 193.783 878 192.793C879.137 191.766 879.705 190.428 879.705 188.778ZM873.655 199.888C871.565 199.888 869.86 200.419 868.54 201.483C867.257 202.546 866.615 204.068 866.615 206.048C866.615 207.881 867.238 209.384 868.485 210.558C869.768 211.694 871.492 212.263 873.655 212.263C875.818 212.263 877.523 211.676 878.77 210.503C880.017 209.329 880.64 207.844 880.64 206.048C880.64 204.104 879.998 202.601 878.715 201.538C877.432 200.438 875.745 199.888 873.655 199.888ZM921.207 184.323H903.387V193.728C904.157 192.774 905.257 192.004 906.687 191.418C908.117 190.794 909.638 190.483 911.252 190.483C914.185 190.483 916.587 191.124 918.457 192.408C920.327 193.691 921.683 195.341 922.527 197.358C923.37 199.338 923.792 201.464 923.792 203.738C923.792 207.954 922.582 211.346 920.162 213.913C917.778 216.479 914.368 217.763 909.932 217.763C905.752 217.763 902.415 216.718 899.922 214.628C897.428 212.538 896.017 209.806 895.687 206.433H903.167C903.497 207.899 904.23 209.073 905.367 209.953C906.54 210.833 908.025 211.273 909.822 211.273C911.985 211.273 913.617 210.594 914.717 209.238C915.817 207.881 916.367 206.084 916.367 203.848C916.367 201.574 915.798 199.851 914.662 198.678C913.562 197.468 911.93 196.863 909.767 196.863C908.227 196.863 906.943 197.248 905.917 198.018C904.89 198.788 904.157 199.814 903.717 201.098H896.347V177.558H921.207V184.323ZM929.652 197.193C929.652 190.849 930.789 185.881 933.062 182.288C935.372 178.694 939.186 176.898 944.502 176.898C949.819 176.898 953.614 178.694 955.887 182.288C958.197 185.881 959.352 190.849 959.352 197.193C959.352 203.573 958.197 208.578 955.887 212.208C953.614 215.838 949.819 217.653 944.502 217.653C939.186 217.653 935.372 215.838 933.062 212.208C930.789 208.578 929.652 203.573 929.652 197.193ZM951.762 197.193C951.762 194.479 951.579 192.206 951.212 190.373C950.882 188.503 950.186 186.981 949.122 185.808C948.096 184.634 946.556 184.048 944.502 184.048C942.449 184.048 940.891 184.634 939.827 185.808C938.801 186.981 938.104 188.503 937.737 190.373C937.407 192.206 937.242 194.479 937.242 197.193C937.242 199.979 937.407 202.326 937.737 204.233C938.067 206.103 938.764 207.624 939.827 208.798C940.891 209.934 942.449 210.503 944.502 210.503C946.556 210.503 948.114 209.934 949.177 208.798C950.241 207.624 950.937 206.103 951.267 204.233C951.597 202.326 951.762 199.979 951.762 197.193ZM981.83 189.028H975.593V195.43H971.237V189.028H965V185.002H971.237V178.6H975.593V185.002H981.83V189.028Z" fill="#07E2AB"/>
<path d="M889.102 248.979C888.25 248.979 887.476 248.817 886.78 248.493C886.084 248.169 885.496 247.737 885.016 247.197C884.536 246.645 884.194 246.039 883.99 245.379L885.286 244.893C885.598 245.805 886.084 246.501 886.744 246.981C887.404 247.449 888.19 247.683 889.102 247.683C889.678 247.683 890.182 247.593 890.614 247.413C891.058 247.221 891.4 246.957 891.64 246.621C891.88 246.285 892 245.895 892 245.451C892 244.791 891.82 244.281 891.46 243.921C891.1 243.561 890.584 243.285 889.912 243.093L887.5 242.373C886.552 242.097 885.82 241.635 885.304 240.987C884.8 240.339 884.548 239.601 884.548 238.773C884.548 238.065 884.722 237.441 885.07 236.901C885.418 236.349 885.892 235.917 886.492 235.605C887.104 235.293 887.794 235.137 888.562 235.137C889.366 235.137 890.086 235.287 890.722 235.587C891.37 235.875 891.916 236.259 892.36 236.739C892.804 237.219 893.122 237.753 893.314 238.341L892.054 238.845C891.766 238.053 891.316 237.453 890.704 237.045C890.104 236.637 889.396 236.433 888.58 236.433C888.064 236.433 887.608 236.523 887.212 236.703C886.828 236.883 886.528 237.141 886.312 237.477C886.096 237.813 885.988 238.209 885.988 238.665C885.988 239.217 886.162 239.715 886.51 240.159C886.858 240.591 887.392 240.915 888.112 241.131L890.236 241.761C891.292 242.073 892.09 242.523 892.63 243.111C893.17 243.699 893.44 244.437 893.44 245.325C893.44 246.045 893.254 246.681 892.882 247.233C892.522 247.773 892.012 248.199 891.352 248.511C890.704 248.823 889.954 248.979 889.102 248.979ZM900.415 248.979C899.515 248.979 898.699 248.763 897.967 248.331C897.247 247.887 896.677 247.281 896.257 246.513C895.837 245.745 895.627 244.875 895.627 243.903C895.627 242.931 895.831 242.073 896.239 241.329C896.647 240.573 897.199 239.979 897.895 239.547C898.603 239.115 899.395 238.899 900.271 238.899C900.967 238.899 901.585 239.031 902.125 239.295C902.677 239.547 903.145 239.895 903.529 240.339C903.913 240.771 904.207 241.263 904.411 241.815C904.615 242.355 904.717 242.913 904.717 243.489C904.717 243.609 904.711 243.747 904.699 243.903C904.687 244.047 904.669 244.197 904.645 244.353H896.491V243.093H903.871L903.223 243.633C903.331 242.973 903.253 242.385 902.989 241.869C902.737 241.341 902.371 240.927 901.891 240.627C901.411 240.315 900.871 240.159 900.271 240.159C899.671 240.159 899.113 240.315 898.597 240.627C898.093 240.939 897.697 241.377 897.409 241.941C897.121 242.493 897.007 243.153 897.067 243.921C897.007 244.689 897.127 245.361 897.427 245.937C897.739 246.501 898.159 246.939 898.687 247.251C899.227 247.563 899.803 247.719 900.415 247.719C901.123 247.719 901.717 247.551 902.197 247.215C902.677 246.879 903.067 246.459 903.367 245.955L904.519 246.567C904.327 246.999 904.033 247.401 903.637 247.773C903.241 248.133 902.767 248.427 902.215 248.655C901.675 248.871 901.075 248.979 900.415 248.979ZM907.097 248.763V239.115H908.447V240.699L908.267 240.465C908.495 240.009 908.837 239.649 909.293 239.385C909.761 239.121 910.325 238.989 910.985 238.989H911.597V240.339H910.751C910.055 240.339 909.497 240.555 909.077 240.987C908.657 241.419 908.447 242.031 908.447 242.823V248.763H907.097ZM915.753 248.763L911.991 239.115H913.503L916.671 247.575H916.185L919.371 239.115H920.901L917.103 248.763H915.753ZM922.478 248.763V239.115H923.828V248.763H922.478ZM922.478 237.333V235.353H923.828V237.333H922.478ZM931.001 248.979C930.053 248.979 929.219 248.757 928.499 248.313C927.779 247.869 927.215 247.269 926.807 246.513C926.399 245.745 926.195 244.881 926.195 243.921C926.195 242.961 926.399 242.103 926.807 241.347C927.215 240.591 927.779 239.997 928.499 239.565C929.219 239.121 930.053 238.899 931.001 238.899C931.601 238.899 932.165 239.007 932.693 239.223C933.221 239.439 933.689 239.733 934.097 240.105C934.505 240.465 934.811 240.885 935.015 241.365L933.791 241.995C933.551 241.479 933.185 241.059 932.693 240.735C932.201 240.411 931.637 240.249 931.001 240.249C930.365 240.249 929.789 240.411 929.273 240.735C928.769 241.047 928.367 241.485 928.067 242.049C927.779 242.601 927.635 243.231 927.635 243.939C927.635 244.635 927.779 245.265 928.067 245.829C928.367 246.381 928.769 246.819 929.273 247.143C929.789 247.467 930.365 247.629 931.001 247.629C931.637 247.629 932.195 247.467 932.675 247.143C933.167 246.819 933.539 246.387 933.791 245.847L935.015 246.513C934.811 246.981 934.505 247.401 934.097 247.773C933.689 248.145 933.221 248.439 932.693 248.655C932.165 248.871 931.601 248.979 931.001 248.979ZM941.776 248.979C940.876 248.979 940.06 248.763 939.328 248.331C938.608 247.887 938.038 247.281 937.618 246.513C937.198 245.745 936.988 244.875 936.988 243.903C936.988 242.931 937.192 242.073 937.6 241.329C938.008 240.573 938.56 239.979 939.256 239.547C939.964 239.115 940.756 238.899 941.632 238.899C942.328 238.899 942.946 239.031 943.486 239.295C944.038 239.547 944.506 239.895 944.89 240.339C945.274 240.771 945.568 241.263 945.772 241.815C945.976 242.355 946.078 242.913 946.078 243.489C946.078 243.609 946.072 243.747 946.06 243.903C946.048 244.047 946.03 244.197 946.006 244.353H937.852V243.093H945.232L944.584 243.633C944.692 242.973 944.614 242.385 944.35 241.869C944.098 241.341 943.732 240.927 943.252 240.627C942.772 240.315 942.232 240.159 941.632 240.159C941.032 240.159 940.474 240.315 939.958 240.627C939.454 240.939 939.058 241.377 938.77 241.941C938.482 242.493 938.368 243.153 938.428 243.921C938.368 244.689 938.488 245.361 938.788 245.937C939.1 246.501 939.52 246.939 940.048 247.251C940.588 247.563 941.164 247.719 941.776 247.719C942.484 247.719 943.078 247.551 943.558 247.215C944.038 246.879 944.428 246.459 944.728 245.955L945.88 246.567C945.688 246.999 945.394 247.401 944.998 247.773C944.602 248.133 944.128 248.427 943.576 248.655C943.036 248.871 942.436 248.979 941.776 248.979ZM951.806 248.979C950.882 248.979 950.072 248.745 949.376 248.277C948.68 247.809 948.176 247.173 947.864 246.369L948.998 245.829C949.274 246.417 949.658 246.885 950.15 247.233C950.654 247.581 951.206 247.755 951.806 247.755C952.382 247.755 952.868 247.617 953.264 247.341C953.66 247.053 953.858 246.681 953.858 246.225C953.858 245.889 953.762 245.625 953.57 245.433C953.378 245.229 953.156 245.073 952.904 244.965C952.652 244.857 952.43 244.779 952.238 244.731L950.852 244.335C949.964 244.083 949.322 243.729 948.926 243.273C948.53 242.817 948.332 242.289 948.332 241.689C948.332 241.125 948.476 240.633 948.764 240.213C949.052 239.793 949.442 239.469 949.934 239.241C950.426 239.013 950.972 238.899 951.572 238.899C952.388 238.899 953.126 239.115 953.786 239.547C954.458 239.967 954.932 240.555 955.208 241.311L954.056 241.851C953.816 241.311 953.468 240.891 953.012 240.591C952.568 240.279 952.07 240.123 951.518 240.123C950.978 240.123 950.546 240.261 950.222 240.537C949.898 240.813 949.736 241.161 949.736 241.581C949.736 241.905 949.82 242.163 949.988 242.355C950.156 242.547 950.348 242.691 950.564 242.787C950.792 242.883 950.99 242.955 951.158 243.003L952.76 243.471C953.54 243.699 954.146 244.053 954.578 244.533C955.022 245.013 955.244 245.577 955.244 246.225C955.244 246.753 955.094 247.227 954.794 247.647C954.506 248.067 954.104 248.397 953.588 248.637C953.072 248.865 952.478 248.979 951.806 248.979Z" fill="white"/>
<path d="M1113 185.763C1113 158.425 1135.16 136.263 1162.5 136.263H1388V223.763C1388 251.101 1365.84 273.263 1338.5 273.263H1113V185.763Z" stroke="white"/>
<path d="M1193.84 209.073C1197.36 206.139 1200.16 203.701 1202.25 201.758C1204.34 199.778 1206.08 197.724 1207.48 195.598C1208.87 193.471 1209.57 191.381 1209.57 189.328C1209.57 187.458 1209.13 185.991 1208.25 184.928C1207.37 183.864 1206.01 183.333 1204.18 183.333C1202.34 183.333 1200.93 183.956 1199.94 185.203C1198.95 186.413 1198.44 188.081 1198.4 190.208H1190.92C1191.07 185.808 1192.37 182.471 1194.83 180.198C1197.32 177.924 1200.47 176.788 1204.29 176.788C1208.47 176.788 1211.67 177.906 1213.91 180.143C1216.15 182.343 1217.27 185.258 1217.27 188.888C1217.27 191.748 1216.5 194.479 1214.96 197.083C1213.42 199.686 1211.66 201.959 1209.68 203.903C1207.7 205.809 1205.11 208.119 1201.92 210.833H1218.15V217.213H1190.98V211.493L1193.84 209.073ZM1223.11 188.228C1223.29 184.561 1224.57 181.738 1226.96 179.758C1229.38 177.741 1232.55 176.733 1236.47 176.733C1239.15 176.733 1241.44 177.209 1243.35 178.163C1245.25 179.079 1246.68 180.344 1247.64 181.958C1248.63 183.534 1249.12 185.331 1249.12 187.348C1249.12 189.658 1248.52 191.619 1247.31 193.233C1246.13 194.809 1244.72 195.873 1243.07 196.423V196.643C1245.2 197.303 1246.85 198.476 1248.02 200.163C1249.23 201.849 1249.84 204.013 1249.84 206.653C1249.84 208.853 1249.32 210.814 1248.3 212.538C1247.31 214.261 1245.82 215.618 1243.84 216.608C1241.9 217.561 1239.55 218.038 1236.8 218.038C1232.66 218.038 1229.29 216.993 1226.68 214.903C1224.08 212.813 1222.7 209.733 1222.56 205.663H1230.04C1230.11 207.459 1230.72 208.908 1231.85 210.008C1233.03 211.071 1234.62 211.603 1236.64 211.603C1238.51 211.603 1239.94 211.089 1240.93 210.063C1241.95 208.999 1242.47 207.643 1242.47 205.993C1242.47 203.793 1241.77 202.216 1240.38 201.263C1238.98 200.309 1236.82 199.833 1233.89 199.833H1232.29V193.508H1233.89C1239.09 193.508 1241.7 191.766 1241.7 188.283C1241.7 186.706 1241.22 185.478 1240.27 184.598C1239.35 183.718 1238.01 183.278 1236.25 183.278C1234.53 183.278 1233.19 183.754 1232.24 184.708C1231.32 185.624 1230.79 186.798 1230.64 188.228H1223.11ZM1255.59 209.953V203.903L1273.58 178.163H1282.54V203.243H1287.38V209.953H1282.54V217.763H1274.84V209.953H1255.59ZM1275.34 186.413L1264.06 203.243H1275.34V186.413ZM1308.91 189.028H1302.67V195.43H1298.31V189.028H1292.08V185.002H1298.31V178.6H1302.67V185.002H1308.91V189.028Z" fill="#07E2AB"/>
<path d="M1219.1 248.979C1218.25 248.979 1217.48 248.817 1216.78 248.493C1216.08 248.169 1215.5 247.737 1215.02 247.197C1214.54 246.645 1214.19 246.039 1213.99 245.379L1215.29 244.893C1215.6 245.805 1216.08 246.501 1216.74 246.981C1217.4 247.449 1218.19 247.683 1219.1 247.683C1219.68 247.683 1220.18 247.593 1220.61 247.413C1221.06 247.221 1221.4 246.957 1221.64 246.621C1221.88 246.285 1222 245.895 1222 245.451C1222 244.791 1221.82 244.281 1221.46 243.921C1221.1 243.561 1220.58 243.285 1219.91 243.093L1217.5 242.373C1216.55 242.097 1215.82 241.635 1215.3 240.987C1214.8 240.339 1214.55 239.601 1214.55 238.773C1214.55 238.065 1214.72 237.441 1215.07 236.901C1215.42 236.349 1215.89 235.917 1216.49 235.605C1217.1 235.293 1217.79 235.137 1218.56 235.137C1219.37 235.137 1220.09 235.287 1220.72 235.587C1221.37 235.875 1221.92 236.259 1222.36 236.739C1222.8 237.219 1223.12 237.753 1223.31 238.341L1222.05 238.845C1221.77 238.053 1221.32 237.453 1220.7 237.045C1220.1 236.637 1219.4 236.433 1218.58 236.433C1218.06 236.433 1217.61 236.523 1217.21 236.703C1216.83 236.883 1216.53 237.141 1216.31 237.477C1216.1 237.813 1215.99 238.209 1215.99 238.665C1215.99 239.217 1216.16 239.715 1216.51 240.159C1216.86 240.591 1217.39 240.915 1218.11 241.131L1220.24 241.761C1221.29 242.073 1222.09 242.523 1222.63 243.111C1223.17 243.699 1223.44 244.437 1223.44 245.325C1223.44 246.045 1223.25 246.681 1222.88 247.233C1222.52 247.773 1222.01 248.199 1221.35 248.511C1220.7 248.823 1219.95 248.979 1219.1 248.979ZM1230.41 248.979C1229.51 248.979 1228.7 248.763 1227.97 248.331C1227.25 247.887 1226.68 247.281 1226.26 246.513C1225.84 245.745 1225.63 244.875 1225.63 243.903C1225.63 242.931 1225.83 242.073 1226.24 241.329C1226.65 240.573 1227.2 239.979 1227.89 239.547C1228.6 239.115 1229.39 238.899 1230.27 238.899C1230.97 238.899 1231.58 239.031 1232.12 239.295C1232.68 239.547 1233.14 239.895 1233.53 240.339C1233.91 240.771 1234.21 241.263 1234.41 241.815C1234.61 242.355 1234.72 242.913 1234.72 243.489C1234.72 243.609 1234.71 243.747 1234.7 243.903C1234.69 244.047 1234.67 244.197 1234.64 244.353H1226.49V243.093H1233.87L1233.22 243.633C1233.33 242.973 1233.25 242.385 1232.99 241.869C1232.74 241.341 1232.37 240.927 1231.89 240.627C1231.41 240.315 1230.87 240.159 1230.27 240.159C1229.67 240.159 1229.11 240.315 1228.6 240.627C1228.09 240.939 1227.7 241.377 1227.41 241.941C1227.12 242.493 1227.01 243.153 1227.07 243.921C1227.01 244.689 1227.13 245.361 1227.43 245.937C1227.74 246.501 1228.16 246.939 1228.69 247.251C1229.23 247.563 1229.8 247.719 1230.41 247.719C1231.12 247.719 1231.72 247.551 1232.2 247.215C1232.68 246.879 1233.07 246.459 1233.37 245.955L1234.52 246.567C1234.33 246.999 1234.03 247.401 1233.64 247.773C1233.24 248.133 1232.77 248.427 1232.21 248.655C1231.67 248.871 1231.07 248.979 1230.41 248.979ZM1237.1 248.763V239.115H1238.45V240.699L1238.27 240.465C1238.49 240.009 1238.84 239.649 1239.29 239.385C1239.76 239.121 1240.32 238.989 1240.98 238.989H1241.6V240.339H1240.75C1240.05 240.339 1239.5 240.555 1239.08 240.987C1238.66 241.419 1238.45 242.031 1238.45 242.823V248.763H1237.1ZM1245.75 248.763L1241.99 239.115H1243.5L1246.67 247.575H1246.18L1249.37 239.115H1250.9L1247.1 248.763H1245.75ZM1252.48 248.763V239.115H1253.83V248.763H1252.48ZM1252.48 237.333V235.353H1253.83V237.333H1252.48ZM1261 248.979C1260.05 248.979 1259.22 248.757 1258.5 248.313C1257.78 247.869 1257.22 247.269 1256.81 246.513C1256.4 245.745 1256.2 244.881 1256.2 243.921C1256.2 242.961 1256.4 242.103 1256.81 241.347C1257.22 240.591 1257.78 239.997 1258.5 239.565C1259.22 239.121 1260.05 238.899 1261 238.899C1261.6 238.899 1262.17 239.007 1262.69 239.223C1263.22 239.439 1263.69 239.733 1264.1 240.105C1264.51 240.465 1264.81 240.885 1265.02 241.365L1263.79 241.995C1263.55 241.479 1263.19 241.059 1262.69 240.735C1262.2 240.411 1261.64 240.249 1261 240.249C1260.37 240.249 1259.79 240.411 1259.27 240.735C1258.77 241.047 1258.37 241.485 1258.07 242.049C1257.78 242.601 1257.64 243.231 1257.64 243.939C1257.64 244.635 1257.78 245.265 1258.07 245.829C1258.37 246.381 1258.77 246.819 1259.27 247.143C1259.79 247.467 1260.37 247.629 1261 247.629C1261.64 247.629 1262.2 247.467 1262.68 247.143C1263.17 246.819 1263.54 246.387 1263.79 245.847L1265.02 246.513C1264.81 246.981 1264.51 247.401 1264.1 247.773C1263.69 248.145 1263.22 248.439 1262.69 248.655C1262.17 248.871 1261.6 248.979 1261 248.979ZM1271.78 248.979C1270.88 248.979 1270.06 248.763 1269.33 248.331C1268.61 247.887 1268.04 247.281 1267.62 246.513C1267.2 245.745 1266.99 244.875 1266.99 243.903C1266.99 242.931 1267.19 242.073 1267.6 241.329C1268.01 240.573 1268.56 239.979 1269.26 239.547C1269.96 239.115 1270.76 238.899 1271.63 238.899C1272.33 238.899 1272.95 239.031 1273.49 239.295C1274.04 239.547 1274.51 239.895 1274.89 240.339C1275.27 240.771 1275.57 241.263 1275.77 241.815C1275.98 242.355 1276.08 242.913 1276.08 243.489C1276.08 243.609 1276.07 243.747 1276.06 243.903C1276.05 244.047 1276.03 244.197 1276.01 244.353H1267.85V243.093H1275.23L1274.58 243.633C1274.69 242.973 1274.61 242.385 1274.35 241.869C1274.1 241.341 1273.73 240.927 1273.25 240.627C1272.77 240.315 1272.23 240.159 1271.63 240.159C1271.03 240.159 1270.47 240.315 1269.96 240.627C1269.45 240.939 1269.06 241.377 1268.77 241.941C1268.48 242.493 1268.37 243.153 1268.43 243.921C1268.37 244.689 1268.49 245.361 1268.79 245.937C1269.1 246.501 1269.52 246.939 1270.05 247.251C1270.59 247.563 1271.16 247.719 1271.78 247.719C1272.48 247.719 1273.08 247.551 1273.56 247.215C1274.04 246.879 1274.43 246.459 1274.73 245.955L1275.88 246.567C1275.69 246.999 1275.39 247.401 1275 247.773C1274.6 248.133 1274.13 248.427 1273.58 248.655C1273.04 248.871 1272.44 248.979 1271.78 248.979ZM1281.81 248.979C1280.88 248.979 1280.07 248.745 1279.38 248.277C1278.68 247.809 1278.18 247.173 1277.86 246.369L1279 245.829C1279.27 246.417 1279.66 246.885 1280.15 247.233C1280.65 247.581 1281.21 247.755 1281.81 247.755C1282.38 247.755 1282.87 247.617 1283.26 247.341C1283.66 247.053 1283.86 246.681 1283.86 246.225C1283.86 245.889 1283.76 245.625 1283.57 245.433C1283.38 245.229 1283.16 245.073 1282.9 244.965C1282.65 244.857 1282.43 244.779 1282.24 244.731L1280.85 244.335C1279.96 244.083 1279.32 243.729 1278.93 243.273C1278.53 242.817 1278.33 242.289 1278.33 241.689C1278.33 241.125 1278.48 240.633 1278.76 240.213C1279.05 239.793 1279.44 239.469 1279.93 239.241C1280.43 239.013 1280.97 238.899 1281.57 238.899C1282.39 238.899 1283.13 239.115 1283.79 239.547C1284.46 239.967 1284.93 240.555 1285.21 241.311L1284.06 241.851C1283.82 241.311 1283.47 240.891 1283.01 240.591C1282.57 240.279 1282.07 240.123 1281.52 240.123C1280.98 240.123 1280.55 240.261 1280.22 240.537C1279.9 240.813 1279.74 241.161 1279.74 241.581C1279.74 241.905 1279.82 242.163 1279.99 242.355C1280.16 242.547 1280.35 242.691 1280.56 242.787C1280.79 242.883 1280.99 242.955 1281.16 243.003L1282.76 243.471C1283.54 243.699 1284.15 244.053 1284.58 244.533C1285.02 245.013 1285.24 245.577 1285.24 246.225C1285.24 246.753 1285.09 247.227 1284.79 247.647C1284.51 248.067 1284.1 248.397 1283.59 248.637C1283.07 248.865 1282.48 248.979 1281.81 248.979Z" fill="white"/>
</g>
<defs>
<filter id="filter0_b_579_991" x="-30" y="-29.7373" width="1571" height="469" filterUnits="userSpaceOnUse" color-interpolation-filters="sRGB">
<feFlood flood-opacity="0" result="BackgroundImageFix"/>
<feGaussianBlur in="BackgroundImageFix" stdDeviation="15"/>
<feComposite in2="SourceAlpha" operator="in" result="effect1_backgroundBlur_579_991"/>
<feBlend mode="normal" in="SourceGraphic" in2="effect1_backgroundBlur_579_991" result="shape"/>
</filter>
</defs>
</svg>

