<svg width="93" height="72" viewBox="0 0 93 72" fill="none" xmlns="http://www.w3.org/2000/svg">
<path d="M40.6447 24.9989C39.9911 40.9105 36.5817 55.9261 29.7656 70.1166C29.4943 70.7301 28.9977 71.216 28.3785 71.4739C27.7592 71.7319 27.0645 71.7422 26.4379 71.5027C25.6563 71.2303 26.0893 70.6585 26.1819 70.25C27.0179 66.5819 27.9247 62.9301 28.5375 59.213C29.0821 55.9751 29.3245 52.7291 28.8098 49.4667C28.0092 44.4942 25.1634 41.9589 20.1174 41.8418C14.3197 41.7084 9.39078 39.5816 5.52659 35.3062C0.352552 29.5875 -1.30586 22.8449 1.04969 15.4651C3.37529 8.17242 8.44585 3.4831 15.9673 1.82468C28.5974 -0.958405 40.1436 8.08799 40.6474 21.0095C40.691 22.4228 40.6447 23.8198 40.6447 24.9989Z" fill="#00F3B6"/>
<path d="M92.2346 23.9518C91.6137 39.7299 88.1988 54.8381 81.3419 69.1185C81.0716 69.7322 80.5756 70.2185 79.9566 70.4766C79.3376 70.7346 78.643 70.7446 78.0168 70.5046C77.3115 70.2676 77.6356 69.7938 77.7228 69.3935C78.4308 66.1257 79.196 62.8579 79.8632 59.5574C80.5086 56.393 80.8517 53.1933 80.5576 49.9554C80.386 48.0492 80.0456 46.1702 78.9972 44.5091C77.2979 41.8268 74.7027 40.9063 71.6773 40.8328C65.0845 40.6776 59.7116 37.9816 55.7903 32.7177C51.1609 26.5143 50.2132 19.6165 53.3231 12.5362C56.5909 5.12375 62.4675 0.916444 70.6234 0.371808C80.0102 -0.254523 88.3486 5.42058 91.2106 14.1211C92.27 17.3372 92.4225 20.6214 92.2346 23.9518Z" fill="#00F3B6"/>
</svg>
