<svg width="101" height="132" viewBox="0 0 101 132" fill="none" xmlns="http://www.w3.org/2000/svg">
<path d="M84.2309 73.5254C78.3275 80.3858 70.4726 85.2831 61.7139 87.5639C52.9553 89.8447 43.7094 89.4005 35.2097 86.2906C26.71 83.1808 19.3606 77.5531 14.1421 70.1583C8.92348 62.7636 6.08379 53.9534 6.00182 44.903C5.91986 35.8526 8.59952 26.9924 13.6833 19.5044C18.7671 12.0163 26.0133 6.25645 34.4553 2.99316C42.8973 -0.270129 52.1336 -0.881684 60.9321 1.24008C69.7307 3.36184 77.673 8.11604 83.6997 14.8684L76.9488 20.8938C72.1476 15.5144 65.8203 11.727 58.8108 10.0366C51.8014 8.34631 44.4432 8.83351 37.7179 11.4332C30.9925 14.033 25.2197 18.6216 21.1697 24.587C17.1196 30.5524 14.9849 37.611 15.0502 44.821C15.1155 52.0311 17.3777 59.0498 21.5352 64.9409C25.6926 70.832 31.5475 75.3153 38.3188 77.7928C45.0902 80.2703 52.456 80.6242 59.4337 78.8072C66.4113 76.9902 72.669 73.0888 77.372 67.6233L84.2309 73.5254Z" fill="url(#paint0_linear_579_1223)"/>
<path d="M68.5283 44.8032C68.5283 44.8032 70.2733 34.7802 70.4617 30.9902C70.6502 27.2002 67.9629 27.8004 65.8411 28.5822C63.7192 29.3639 35.4161 41.3412 30.2441 43.9377C28.2967 44.7683 28.7155 46.1154 30.9421 46.8483C33.1686 47.5812 35.2416 48.328 37.0005 48.9422C38.7594 49.5565 40.8813 49.1726 43.8407 47.1345C46.8002 45.0964 56.3206 38.5842 58.6309 37.1534C60.9412 35.7225 61.6392 37.1045 60.2503 38.6052C58.8613 40.1058 49.8992 48.2931 48.0496 50.0939C46.1999 51.8947 48.0495 53.3326 49.2501 54.212C50.4506 55.0915 58.7216 60.9685 60.8993 62.1899C63.077 63.4114 65.6735 62.8042 66.1342 60.096C66.5948 57.3878 68.5283 44.8032 68.5283 44.8032Z" fill="#00F6BC"/>
<path d="M12.342 115.264C12.342 116.041 12.1587 116.775 11.792 117.464C11.4253 118.153 10.8387 118.718 10.032 119.158C9.22533 119.583 8.19133 119.796 6.93 119.796H4.158V126H1.65V110.71H6.93C8.10333 110.71 9.09333 110.915 9.9 111.326C10.7213 111.722 11.33 112.265 11.726 112.954C12.1367 113.643 12.342 114.413 12.342 115.264ZM6.93 117.75C7.88333 117.75 8.59467 117.537 9.064 117.112C9.53333 116.672 9.768 116.056 9.768 115.264C9.768 113.592 8.822 112.756 6.93 112.756H4.158V117.75H6.93ZM17.242 115.638C17.6087 115.022 18.0927 114.545 18.694 114.208C19.31 113.856 20.036 113.68 20.872 113.68V116.276H20.234C19.2513 116.276 18.5033 116.525 17.99 117.024C17.4913 117.523 17.242 118.388 17.242 119.62V126H14.734V113.878H17.242V115.638ZM34.2873 119.642C34.2873 120.097 34.258 120.507 34.1993 120.874H24.9373C25.0107 121.842 25.37 122.619 26.0153 123.206C26.6607 123.793 27.4527 124.086 28.3913 124.086C29.7407 124.086 30.694 123.521 31.2513 122.392H33.9573C33.5907 123.507 32.9233 124.423 31.9553 125.142C31.002 125.846 29.814 126.198 28.3913 126.198C27.2327 126.198 26.1913 125.941 25.2673 125.428C24.358 124.9 23.6393 124.167 23.1113 123.228C22.598 122.275 22.3413 121.175 22.3413 119.928C22.3413 118.681 22.5907 117.589 23.0893 116.65C23.6027 115.697 24.314 114.963 25.2233 114.45C26.1473 113.937 27.2033 113.68 28.3913 113.68C29.5353 113.68 30.5547 113.929 31.4493 114.428C32.344 114.927 33.0407 115.631 33.5393 116.54C34.038 117.435 34.2873 118.469 34.2873 119.642ZM31.6693 118.85C31.6547 117.926 31.3247 117.185 30.6793 116.628C30.034 116.071 29.2347 115.792 28.2813 115.792C27.416 115.792 26.6753 116.071 26.0593 116.628C25.4433 117.171 25.0767 117.911 24.9593 118.85H31.6693ZM51.4295 113.68C52.3828 113.68 53.2335 113.878 53.9815 114.274C54.7441 114.67 55.3381 115.257 55.7635 116.034C56.2035 116.811 56.4235 117.75 56.4235 118.85V126H53.9375V119.224C53.9375 118.139 53.6661 117.31 53.1235 116.738C52.5808 116.151 51.8401 115.858 50.9015 115.858C49.9628 115.858 49.2148 116.151 48.6575 116.738C48.1148 117.31 47.8435 118.139 47.8435 119.224V126H45.3575V119.224C45.3575 118.139 45.0861 117.31 44.5435 116.738C44.0008 116.151 43.2601 115.858 42.3215 115.858C41.3828 115.858 40.6348 116.151 40.0775 116.738C39.5348 117.31 39.2635 118.139 39.2635 119.224V126H36.7555V113.878H39.2635V115.264C39.6741 114.765 40.1948 114.377 40.8255 114.098C41.4561 113.819 42.1308 113.68 42.8495 113.68C43.8175 113.68 44.6828 113.885 45.4455 114.296C46.2081 114.707 46.7948 115.301 47.2055 116.078C47.5721 115.345 48.1441 114.765 48.9215 114.34C49.6988 113.9 50.5348 113.68 51.4295 113.68ZM60.8908 112.272C60.4362 112.272 60.0548 112.118 59.7468 111.81C59.4388 111.502 59.2848 111.121 59.2848 110.666C59.2848 110.211 59.4388 109.83 59.7468 109.522C60.0548 109.214 60.4362 109.06 60.8908 109.06C61.3308 109.06 61.7048 109.214 62.0128 109.522C62.3208 109.83 62.4748 110.211 62.4748 110.666C62.4748 111.121 62.3208 111.502 62.0128 111.81C61.7048 112.118 61.3308 112.272 60.8908 112.272ZM62.1228 113.878V126H59.6148V113.878H62.1228ZM76.3936 113.878V126H73.8856V124.57C73.4896 125.069 72.969 125.465 72.3236 125.758C71.693 126.037 71.0183 126.176 70.2996 126.176C69.3463 126.176 68.4883 125.978 67.7256 125.582C66.9776 125.186 66.3836 124.599 65.9436 123.822C65.5183 123.045 65.3056 122.106 65.3056 121.006V113.878H67.7916V120.632C67.7916 121.717 68.063 122.553 68.6056 123.14C69.1483 123.712 69.889 123.998 70.8276 123.998C71.7663 123.998 72.507 123.712 73.0496 123.14C73.607 122.553 73.8856 121.717 73.8856 120.632V113.878H76.3936ZM94.3767 113.68C95.3301 113.68 96.1807 113.878 96.9287 114.274C97.6914 114.67 98.2854 115.257 98.7107 116.034C99.1507 116.811 99.3707 117.75 99.3707 118.85V126H96.8847V119.224C96.8847 118.139 96.6134 117.31 96.0707 116.738C95.5281 116.151 94.7874 115.858 93.8487 115.858C92.9101 115.858 92.1621 116.151 91.6047 116.738C91.0621 117.31 90.7907 118.139 90.7907 119.224V126H88.3047V119.224C88.3047 118.139 88.0334 117.31 87.4907 116.738C86.9481 116.151 86.2074 115.858 85.2687 115.858C84.3301 115.858 83.5821 116.151 83.0247 116.738C82.4821 117.31 82.2107 118.139 82.2107 119.224V126H79.7027V113.878H82.2107V115.264C82.6214 114.765 83.1421 114.377 83.7727 114.098C84.4034 113.819 85.0781 113.68 85.7967 113.68C86.7647 113.68 87.6301 113.885 88.3927 114.296C89.1554 114.707 89.7421 115.301 90.1527 116.078C90.5194 115.345 91.0914 114.765 91.8687 114.34C92.6461 113.9 93.4821 113.68 94.3767 113.68Z" fill="white"/>
<defs>
<linearGradient id="paint0_linear_579_1223" x1="50.5" y1="0" x2="50.5" y2="89" gradientUnits="userSpaceOnUse">
<stop stop-color="#00FDBB"/>
<stop offset="1" stop-color="#008BD1"/>
</linearGradient>
</defs>
</svg>
